<svg width="14" height="13" viewBox="0 0 14 13" fill="none" xmlns="http://www.w3.org/2000/svg">
<path d="M13.375 11.0485L12.3334 1.24851C12.3334 0.632392 11.8561 0.133362 11.2668 0.133362H7.0001H2.73343C2.1441 0.133362 1.66676 0.632392 1.66676 1.24851L0.625164 11.0485C0.609698 11.1249 0.600098 11.2035 0.600098 11.2849C0.600098 11.901 1.07743 12.4 1.66676 12.4H7.0001H12.3334C12.9228 12.4 13.4001 11.901 13.4001 11.2849C13.4001 11.2035 13.3905 11.1249 13.375 11.0485ZM9.66676 2.86994V3.47882C9.66676 5.01605 8.4705 6.2667 7.0001 6.2667C5.5297 6.2667 4.33343 5.01605 4.33343 3.47882V2.86994C4.02356 2.75508 3.8001 2.44842 3.8001 2.08488C3.8001 1.6232 4.1585 1.24851 4.6001 1.24851C5.0417 1.24851 5.4001 1.6232 5.4001 2.08488V3.47882C5.4001 4.40105 6.11796 5.15154 7.0001 5.15154C7.88223 5.15154 8.6001 4.40105 8.6001 3.47882V2.08488C8.6001 1.6232 8.9585 1.24851 9.4001 1.24851C9.8417 1.24851 10.2001 1.6232 10.2001 2.08488C10.2001 2.44842 9.97663 2.75508 9.66676 2.86994Z" fill="#F7F7F7"/>
</svg>
