<svg width="22" height="20" viewBox="0 0 22 20" fill="none" xmlns="http://www.w3.org/2000/svg">
<path d="M11.0001 14.4667C12.9147 14.4667 14.4668 12.9146 14.4668 11C14.4668 9.0854 12.9147 7.53333 11.0001 7.53333C9.08553 7.53333 7.53345 9.0854 7.53345 11C7.53345 12.9146 9.08553 14.4667 11.0001 14.4667Z" fill="#F7F7F7"/>
<path d="M7.75008 0.166687L5.76758 2.33335H2.33341C1.14175 2.33335 0.166748 3.30835 0.166748 4.50002V17.5C0.166748 18.6917 1.14175 19.6667 2.33341 19.6667H19.6667C20.8584 19.6667 21.8334 18.6917 21.8334 17.5V4.50002C21.8334 3.30835 20.8584 2.33335 19.6667 2.33335H16.2326L14.2501 0.166687H7.75008ZM11.0001 16.4167C8.01008 16.4167 5.58342 13.99 5.58342 11C5.58342 8.01002 8.01008 5.58335 11.0001 5.58335C13.9901 5.58335 16.4167 8.01002 16.4167 11C16.4167 13.99 13.9901 16.4167 11.0001 16.4167Z" fill="#F7F7F7"/>
</svg>
